<?xml version="1.0" encoding="utf-8" standalone="no"?>
<!DOCTYPE svg PUBLIC "-//W3C//DTD SVG 1.1//EN"
  "http://www.w3.org/Graphics/SVG/1.1/DTD/svg11.dtd">
<!-- Created with matplotlib (http://matplotlib.org/) -->
<svg height="432pt" version="1.1" viewBox="0 0 576 432" width="576pt" xmlns="http://www.w3.org/2000/svg" xmlns:xlink="http://www.w3.org/1999/xlink">
 <defs>
  <style type="text/css">
*{stroke-linecap:butt;stroke-linejoin:round;stroke-miterlimit:100000;}
  </style>
 </defs>
 <g id="figure_1">
  <g id="patch_1">
   <path d="M 0 432 
L 576 432 
L 576 0 
L 0 0 
z
" style="fill:#ffffff;"/>
  </g>
  <g id="patch_2">
   <path d="M 72 388.8 
L 518.4 388.8 
L 518.4 43.2 
L 72 43.2 
z
" style="fill:#ffffff;"/>
  </g>
  <g id="pane3d_1">
   <g id="patch_3">
    <path d="M 253.185285 266.737769 
L 465.565043 292.129444 
L 469.963302 107.694184 
L 251.956936 89.914787 
" style="fill:#f2f2f2;opacity:0.5;stroke:#f2f2f2;stroke-linejoin:miter;"/>
   </g>
  </g>
  <g id="pane3d_2">
   <g id="patch_4">
    <path d="M 253.185285 266.737769 
L 130.012698 316.493952 
L 125.232693 124.793475 
L 251.956936 89.914787 
" style="fill:#e6e6e6;opacity:0.5;stroke:#e6e6e6;stroke-linejoin:miter;"/>
   </g>
  </g>
  <g id="pane3d_3">
   <g id="patch_5">
    <path d="M 253.185285 266.737769 
L 130.012698 316.493952 
L 356.194969 346.757552 
L 465.565043 292.129444 
" style="fill:#ececec;opacity:0.5;stroke:#ececec;stroke-linejoin:miter;"/>
   </g>
  </g>
  <g id="axis3d_1">
   <g id="line2d_1">
    <path d="M 465.565043 292.129444 
L 356.194969 346.757552 
" style="fill:none;stroke:#000000;stroke-linecap:square;stroke-width:0.75;"/>
   </g>
   <g id="text_1">
    <!-- Red Value -->
    <defs>
     <path id="BitstreamVeraSans-Roman-20"/>
     <path d="M 9.421875 75.984375 
L 18.40625 75.984375 
L 18.40625 0 
L 9.421875 0 
z
" id="BitstreamVeraSans-Roman-6c"/>
     <path d="M 44.390625 34.1875 
Q 47.5625 33.109375 50.5625 29.59375 
Q 53.5625 26.078125 56.59375 19.921875 
L 66.609375 0 
L 56 0 
L 46.6875 18.703125 
Q 43.0625 26.03125 39.671875 28.421875 
Q 36.28125 30.8125 30.421875 30.8125 
L 19.671875 30.8125 
L 19.671875 0 
L 9.8125 0 
L 9.8125 72.90625 
L 32.078125 72.90625 
Q 44.578125 72.90625 50.734375 67.671875 
Q 56.890625 62.453125 56.890625 51.90625 
Q 56.890625 45.015625 53.6875 40.46875 
Q 50.484375 35.9375 44.390625 34.1875 
M 19.671875 64.796875 
L 19.671875 38.921875 
L 32.078125 38.921875 
Q 39.203125 38.921875 42.84375 42.21875 
Q 46.484375 45.515625 46.484375 51.90625 
Q 46.484375 58.296875 42.84375 61.546875 
Q 39.203125 64.796875 32.078125 64.796875 
z
" id="BitstreamVeraSans-Roman-52"/>
     <path d="M 28.609375 0 
L 0.78125 72.90625 
L 11.078125 72.90625 
L 34.1875 11.53125 
L 57.328125 72.90625 
L 67.578125 72.90625 
L 39.796875 0 
z
" id="BitstreamVeraSans-Roman-56"/>
     <path d="M 56.203125 29.59375 
L 56.203125 25.203125 
L 14.890625 25.203125 
Q 15.484375 15.921875 20.484375 11.0625 
Q 25.484375 6.203125 34.421875 6.203125 
Q 39.59375 6.203125 44.453125 7.46875 
Q 49.3125 8.734375 54.109375 11.28125 
L 54.109375 2.78125 
Q 49.265625 0.734375 44.1875 -0.34375 
Q 39.109375 -1.421875 33.890625 -1.421875 
Q 20.796875 -1.421875 13.15625 6.1875 
Q 5.515625 13.8125 5.515625 26.8125 
Q 5.515625 40.234375 12.765625 48.109375 
Q 20.015625 56 32.328125 56 
Q 43.359375 56 49.78125 48.890625 
Q 56.203125 41.796875 56.203125 29.59375 
M 47.21875 32.234375 
Q 47.125 39.59375 43.09375 43.984375 
Q 39.0625 48.390625 32.421875 48.390625 
Q 24.90625 48.390625 20.390625 44.140625 
Q 15.875 39.890625 15.1875 32.171875 
z
" id="BitstreamVeraSans-Roman-65"/>
     <path d="M 45.40625 46.390625 
L 45.40625 75.984375 
L 54.390625 75.984375 
L 54.390625 0 
L 45.40625 0 
L 45.40625 8.203125 
Q 42.578125 3.328125 38.25 0.953125 
Q 33.9375 -1.421875 27.875 -1.421875 
Q 17.96875 -1.421875 11.734375 6.484375 
Q 5.515625 14.40625 5.515625 27.296875 
Q 5.515625 40.1875 11.734375 48.09375 
Q 17.96875 56 27.875 56 
Q 33.9375 56 38.25 53.625 
Q 42.578125 51.265625 45.40625 46.390625 
M 14.796875 27.296875 
Q 14.796875 17.390625 18.875 11.75 
Q 22.953125 6.109375 30.078125 6.109375 
Q 37.203125 6.109375 41.296875 11.75 
Q 45.40625 17.390625 45.40625 27.296875 
Q 45.40625 37.203125 41.296875 42.84375 
Q 37.203125 48.484375 30.078125 48.484375 
Q 22.953125 48.484375 18.875 42.84375 
Q 14.796875 37.203125 14.796875 27.296875 
" id="BitstreamVeraSans-Roman-64"/>
     <path d="M 8.5 21.578125 
L 8.5 54.6875 
L 17.484375 54.6875 
L 17.484375 21.921875 
Q 17.484375 14.15625 20.5 10.265625 
Q 23.53125 6.390625 29.59375 6.390625 
Q 36.859375 6.390625 41.078125 11.03125 
Q 45.3125 15.671875 45.3125 23.6875 
L 45.3125 54.6875 
L 54.296875 54.6875 
L 54.296875 0 
L 45.3125 0 
L 45.3125 8.40625 
Q 42.046875 3.421875 37.71875 1 
Q 33.40625 -1.421875 27.6875 -1.421875 
Q 18.265625 -1.421875 13.375 4.4375 
Q 8.5 10.296875 8.5 21.578125 
" id="BitstreamVeraSans-Roman-75"/>
     <path d="M 34.28125 27.484375 
Q 23.390625 27.484375 19.1875 25 
Q 14.984375 22.515625 14.984375 16.5 
Q 14.984375 11.71875 18.140625 8.90625 
Q 21.296875 6.109375 26.703125 6.109375 
Q 34.1875 6.109375 38.703125 11.40625 
Q 43.21875 16.703125 43.21875 25.484375 
L 43.21875 27.484375 
z
M 52.203125 31.203125 
L 52.203125 0 
L 43.21875 0 
L 43.21875 8.296875 
Q 40.140625 3.328125 35.546875 0.953125 
Q 30.953125 -1.421875 24.3125 -1.421875 
Q 15.921875 -1.421875 10.953125 3.296875 
Q 6 8.015625 6 15.921875 
Q 6 25.140625 12.171875 29.828125 
Q 18.359375 34.515625 30.609375 34.515625 
L 43.21875 34.515625 
L 43.21875 35.40625 
Q 43.21875 41.609375 39.140625 45 
Q 35.0625 48.390625 27.6875 48.390625 
Q 23 48.390625 18.546875 47.265625 
Q 14.109375 46.140625 10.015625 43.890625 
L 10.015625 52.203125 
Q 14.9375 54.109375 19.578125 55.046875 
Q 24.21875 56 28.609375 56 
Q 40.484375 56 46.34375 49.84375 
Q 52.203125 43.703125 52.203125 31.203125 
" id="BitstreamVeraSans-Roman-61"/>
    </defs>
    <g transform="translate(416.146353102 362.108016599)rotate(-26.5411874897)scale(0.12 -0.12)">
     <use xlink:href="#BitstreamVeraSans-Roman-52"/>
     <use x="69.419921875" xlink:href="#BitstreamVeraSans-Roman-65"/>
     <use x="130.943359375" xlink:href="#BitstreamVeraSans-Roman-64"/>
     <use x="194.419921875" xlink:href="#BitstreamVeraSans-Roman-20"/>
     <use x="226.20703125" xlink:href="#BitstreamVeraSans-Roman-56"/>
     <use x="294.505859375" xlink:href="#BitstreamVeraSans-Roman-61"/>
     <use x="355.78515625" xlink:href="#BitstreamVeraSans-Roman-6c"/>
     <use x="383.568359375" xlink:href="#BitstreamVeraSans-Roman-75"/>
     <use x="446.947265625" xlink:href="#BitstreamVeraSans-Roman-65"/>
    </g>
   </g>
   <g id="Line3DCollection_1">
    <path d="M 463.562088 293.12988 
L 250.92047 267.652653 
L 249.632048 90.554673 
" style="fill:none;stroke:#e6e6e6;"/>
    <path d="M 444.367422 302.717221 
L 229.233598 276.413173 
L 227.360044 96.684662 
" style="fill:none;stroke:#e6e6e6;"/>
    <path d="M 424.530174 312.625519 
L 206.85349 285.45373 
L 204.35727 103.015784 
" style="fill:none;stroke:#e6e6e6;"/>
    <path d="M 404.017529 322.871165 
L 183.746367 294.787968 
L 180.587161 109.558101 
" style="fill:none;stroke:#e6e6e6;"/>
    <path d="M 382.794396 333.471684 
L 159.876219 304.430433 
L 156.010669 116.322361 
" style="fill:none;stroke:#e6e6e6;"/>
    <path d="M 360.823211 344.445841 
L 135.204617 314.39665 
L 130.586053 123.320054 
" style="fill:none;stroke:#e6e6e6;"/>
   </g>
   <g id="xtick_1">
    <g id="line2d_2">
     <path d="M 461.783779 292.916815 
L 467.122613 293.556477 
" style="fill:none;stroke:#000000;stroke-linecap:square;"/>
    </g>
    <g id="text_2">
     <!-- 0 -->
     <defs>
      <path d="M 31.78125 66.40625 
Q 24.171875 66.40625 20.328125 58.90625 
Q 16.5 51.421875 16.5 36.375 
Q 16.5 21.390625 20.328125 13.890625 
Q 24.171875 6.390625 31.78125 6.390625 
Q 39.453125 6.390625 43.28125 13.890625 
Q 47.125 21.390625 47.125 36.375 
Q 47.125 51.421875 43.28125 58.90625 
Q 39.453125 66.40625 31.78125 66.40625 
M 31.78125 74.21875 
Q 44.046875 74.21875 50.515625 64.515625 
Q 56.984375 54.828125 56.984375 36.375 
Q 56.984375 17.96875 50.515625 8.265625 
Q 44.046875 -1.421875 31.78125 -1.421875 
Q 19.53125 -1.421875 13.0625 8.265625 
Q 6.59375 17.96875 6.59375 36.375 
Q 6.59375 54.828125 13.0625 64.515625 
Q 19.53125 74.21875 31.78125 74.21875 
" id="BitstreamVeraSans-Roman-30"/>
     </defs>
     <g transform="translate(472.450378791 314.279406035)scale(0.12 -0.12)">
      <use xlink:href="#BitstreamVeraSans-Roman-30"/>
     </g>
    </g>
   </g>
   <g id="xtick_2">
    <g id="line2d_3">
     <path d="M 442.566986 302.497085 
L 447.972315 303.157986 
" style="fill:none;stroke:#000000;stroke-linecap:square;"/>
    </g>
    <g id="text_3">
     <!-- 50 -->
     <defs>
      <path d="M 10.796875 72.90625 
L 49.515625 72.90625 
L 49.515625 64.59375 
L 19.828125 64.59375 
L 19.828125 46.734375 
Q 21.96875 47.46875 24.109375 47.828125 
Q 26.265625 48.1875 28.421875 48.1875 
Q 40.625 48.1875 47.75 41.5 
Q 54.890625 34.8125 54.890625 23.390625 
Q 54.890625 11.625 47.5625 5.09375 
Q 40.234375 -1.421875 26.90625 -1.421875 
Q 22.3125 -1.421875 17.546875 -0.640625 
Q 12.796875 0.140625 7.71875 1.703125 
L 7.71875 11.625 
Q 12.109375 9.234375 16.796875 8.0625 
Q 21.484375 6.890625 26.703125 6.890625 
Q 35.15625 6.890625 40.078125 11.328125 
Q 45.015625 15.765625 45.015625 23.390625 
Q 45.015625 31 40.078125 35.4375 
Q 35.15625 39.890625 26.703125 39.890625 
Q 22.75 39.890625 18.8125 39.015625 
Q 14.890625 38.140625 10.796875 36.28125 
z
" id="BitstreamVeraSans-Roman-35"/>
     </defs>
     <g transform="translate(449.62531208 324.076198563)scale(0.12 -0.12)">
      <use xlink:href="#BitstreamVeraSans-Roman-35"/>
      <use x="63.623046875" xlink:href="#BitstreamVeraSans-Roman-30"/>
     </g>
    </g>
   </g>
   <g id="xtick_3">
    <g id="line2d_4">
     <path d="M 422.707114 312.397953 
L 428.180436 313.081168 
" style="fill:none;stroke:#000000;stroke-linecap:square;"/>
    </g>
    <g id="text_4">
     <!-- 100 -->
     <defs>
      <path d="M 12.40625 8.296875 
L 28.515625 8.296875 
L 28.515625 63.921875 
L 10.984375 60.40625 
L 10.984375 69.390625 
L 28.421875 72.90625 
L 38.28125 72.90625 
L 38.28125 8.296875 
L 54.390625 8.296875 
L 54.390625 0 
L 12.40625 0 
z
" id="BitstreamVeraSans-Roman-31"/>
     </defs>
     <g transform="translate(426.163175663 334.201346626)scale(0.12 -0.12)">
      <use xlink:href="#BitstreamVeraSans-Roman-31"/>
      <use x="63.623046875" xlink:href="#BitstreamVeraSans-Roman-30"/>
      <use x="127.24609375" xlink:href="#BitstreamVeraSans-Roman-30"/>
     </g>
    </g>
   </g>
   <g id="xtick_4">
    <g id="line2d_5">
     <path d="M 402.171334 322.635786 
L 407.714185 323.342465 
" style="fill:none;stroke:#000000;stroke-linecap:square;"/>
    </g>
    <g id="text_5">
     <!-- 150 -->
     <g transform="translate(405.848894994 344.671639646)scale(0.12 -0.12)">
      <use xlink:href="#BitstreamVeraSans-Roman-31"/>
      <use x="63.623046875" xlink:href="#BitstreamVeraSans-Roman-35"/>
      <use x="127.24609375" xlink:href="#BitstreamVeraSans-Roman-30"/>
     </g>
    </g>
   </g>
   <g id="xtick_5">
    <g id="line2d_6">
     <path d="M 380.924543 333.228084 
L 386.538497 333.959457 
" style="fill:none;stroke:#000000;stroke-linecap:square;"/>
    </g>
    <g id="text_6">
     <!-- 200 -->
     <defs>
      <path d="M 19.1875 8.296875 
L 53.609375 8.296875 
L 53.609375 0 
L 7.328125 0 
L 7.328125 8.296875 
Q 12.9375 14.109375 22.625 23.890625 
Q 32.328125 33.6875 34.8125 36.53125 
Q 39.546875 41.84375 41.421875 45.53125 
Q 43.3125 49.21875 43.3125 52.78125 
Q 43.3125 58.59375 39.234375 62.25 
Q 35.15625 65.921875 28.609375 65.921875 
Q 23.96875 65.921875 18.8125 64.3125 
Q 13.671875 62.703125 7.8125 59.421875 
L 7.8125 69.390625 
Q 13.765625 71.78125 18.9375 73 
Q 24.125 74.21875 28.421875 74.21875 
Q 39.75 74.21875 46.484375 68.546875 
Q 53.21875 62.890625 53.21875 53.421875 
Q 53.21875 48.921875 51.53125 44.890625 
Q 49.859375 40.875 45.40625 35.40625 
Q 44.1875 33.984375 37.640625 27.21875 
Q 31.109375 20.453125 19.1875 8.296875 
" id="BitstreamVeraSans-Roman-32"/>
     </defs>
     <g transform="translate(384.830136224 355.505031526)scale(0.12 -0.12)">
      <use xlink:href="#BitstreamVeraSans-Roman-32"/>
      <use x="63.623046875" xlink:href="#BitstreamVeraSans-Roman-30"/>
      <use x="127.24609375" xlink:href="#BitstreamVeraSans-Roman-30"/>
     </g>
    </g>
   </g>
   <g id="xtick_6">
    <g id="line2d_7">
     <path d="M 358.929164 344.19358 
L 364.615834 344.950964 
" style="fill:none;stroke:#000000;stroke-linecap:square;"/>
    </g>
    <g id="text_7">
     <!-- 250 -->
     <g transform="translate(363.069606871 366.720743385)scale(0.12 -0.12)">
      <use xlink:href="#BitstreamVeraSans-Roman-32"/>
      <use x="63.623046875" xlink:href="#BitstreamVeraSans-Roman-35"/>
      <use x="127.24609375" xlink:href="#BitstreamVeraSans-Roman-30"/>
     </g>
    </g>
   </g>
  </g>
  <g id="axis3d_2">
   <g id="line2d_8">
    <path d="M 130.012698 316.493952 
L 356.194969 346.757552 
" style="fill:none;stroke:#000000;stroke-linecap:square;stroke-width:0.75;"/>
   </g>
   <g id="text_8">
    <!-- Green Value -->
    <defs>
     <path d="M 59.515625 10.40625 
L 59.515625 29.984375 
L 43.40625 29.984375 
L 43.40625 38.09375 
L 69.28125 38.09375 
L 69.28125 6.78125 
Q 63.578125 2.734375 56.6875 0.65625 
Q 49.8125 -1.421875 42 -1.421875 
Q 24.90625 -1.421875 15.25 8.5625 
Q 5.609375 18.5625 5.609375 36.375 
Q 5.609375 54.25 15.25 64.234375 
Q 24.90625 74.21875 42 74.21875 
Q 49.125 74.21875 55.546875 72.453125 
Q 61.96875 70.703125 67.390625 67.28125 
L 67.390625 56.78125 
Q 61.921875 61.421875 55.765625 63.765625 
Q 49.609375 66.109375 42.828125 66.109375 
Q 29.4375 66.109375 22.71875 58.640625 
Q 16.015625 51.171875 16.015625 36.375 
Q 16.015625 21.625 22.71875 14.15625 
Q 29.4375 6.6875 42.828125 6.6875 
Q 48.046875 6.6875 52.140625 7.59375 
Q 56.25 8.5 59.515625 10.40625 
" id="BitstreamVeraSans-Roman-47"/>
     <path d="M 54.890625 33.015625 
L 54.890625 0 
L 45.90625 0 
L 45.90625 32.71875 
Q 45.90625 40.484375 42.875 44.328125 
Q 39.84375 48.1875 33.796875 48.1875 
Q 26.515625 48.1875 22.3125 43.546875 
Q 18.109375 38.921875 18.109375 30.90625 
L 18.109375 0 
L 9.078125 0 
L 9.078125 54.6875 
L 18.109375 54.6875 
L 18.109375 46.1875 
Q 21.34375 51.125 25.703125 53.5625 
Q 30.078125 56 35.796875 56 
Q 45.21875 56 50.046875 50.171875 
Q 54.890625 44.34375 54.890625 33.015625 
" id="BitstreamVeraSans-Roman-6e"/>
     <path d="M 41.109375 46.296875 
Q 39.59375 47.171875 37.8125 47.578125 
Q 36.03125 48 33.890625 48 
Q 26.265625 48 22.1875 43.046875 
Q 18.109375 38.09375 18.109375 28.8125 
L 18.109375 0 
L 9.078125 0 
L 9.078125 54.6875 
L 18.109375 54.6875 
L 18.109375 46.1875 
Q 20.953125 51.171875 25.484375 53.578125 
Q 30.03125 56 36.53125 56 
Q 37.453125 56 38.578125 55.875 
Q 39.703125 55.765625 41.0625 55.515625 
z
" id="BitstreamVeraSans-Roman-72"/>
    </defs>
    <g transform="translate(187.124622824 361.067839024)rotate(-352.378984697)scale(0.12 -0.12)">
     <use xlink:href="#BitstreamVeraSans-Roman-47"/>
     <use x="77.490234375" xlink:href="#BitstreamVeraSans-Roman-72"/>
     <use x="118.572265625" xlink:href="#BitstreamVeraSans-Roman-65"/>
     <use x="180.095703125" xlink:href="#BitstreamVeraSans-Roman-65"/>
     <use x="241.619140625" xlink:href="#BitstreamVeraSans-Roman-6e"/>
     <use x="304.998046875" xlink:href="#BitstreamVeraSans-Roman-20"/>
     <use x="336.78515625" xlink:href="#BitstreamVeraSans-Roman-56"/>
     <use x="405.083984375" xlink:href="#BitstreamVeraSans-Roman-61"/>
     <use x="466.36328125" xlink:href="#BitstreamVeraSans-Roman-6c"/>
     <use x="494.146484375" xlink:href="#BitstreamVeraSans-Roman-75"/>
     <use x="557.525390625" xlink:href="#BitstreamVeraSans-Roman-65"/>
    </g>
   </g>
   <g id="Line3DCollection_2">
    <path d="M 256.125494 90.254752 
L 257.250912 267.223847 
L 134.325188 317.070972 
" style="fill:none;stroke:#e6e6e6;"/>
    <path d="M 295.728378 93.484545 
L 295.866843 271.840686 
L 175.319545 322.556091 
" style="fill:none;stroke:#e6e6e6;"/>
    <path d="M 336.011171 96.769787 
L 335.128922 276.534777 
L 217.062415 328.141363 
" style="fill:none;stroke:#e6e6e6;"/>
    <path d="M 376.991535 100.111919 
L 375.053504 281.308076 
L 259.57449 333.829556 
" style="fill:none;stroke:#e6e6e6;"/>
    <path d="M 418.687748 103.512432 
L 415.657498 286.162604 
L 302.877227 339.623541 
" style="fill:none;stroke:#e6e6e6;"/>
    <path d="M 461.11873 106.972869 
L 456.958397 291.100452 
L 346.992891 345.526298 
" style="fill:none;stroke:#e6e6e6;"/>
   </g>
   <g id="xtick_7">
    <g id="line2d_9">
     <path d="M 135.39592 316.636783 
L 132.179113 317.941218 
" style="fill:none;stroke:#000000;stroke-linecap:square;"/>
    </g>
    <g id="text_9">
     <!-- 0 -->
     <g transform="translate(122.951526279 340.260161812)scale(0.12 -0.12)">
      <use xlink:href="#BitstreamVeraSans-Roman-30"/>
     </g>
    </g>
   </g>
   <g id="xtick_8">
    <g id="line2d_10">
     <path d="M 176.370334 322.114014 
L 173.2134 323.442166 
" style="fill:none;stroke:#000000;stroke-linecap:square;"/>
    </g>
    <g id="text_10">
     <!-- 50 -->
     <g transform="translate(160.210490761 345.893215206)scale(0.12 -0.12)">
      <use xlink:href="#BitstreamVeraSans-Roman-35"/>
      <use x="63.623046875" xlink:href="#BitstreamVeraSans-Roman-30"/>
     </g>
    </g>
   </g>
   <g id="xtick_9">
    <g id="line2d_11">
     <path d="M 218.092352 327.69118 
L 214.998026 329.043703 
" style="fill:none;stroke:#000000;stroke-linecap:square;"/>
    </g>
    <g id="text_11">
     <!-- 100 -->
     <g transform="translate(198.222251316 351.629503884)scale(0.12 -0.12)">
      <use xlink:href="#BitstreamVeraSans-Roman-31"/>
      <use x="63.623046875" xlink:href="#BitstreamVeraSans-Roman-30"/>
      <use x="127.24609375" xlink:href="#BitstreamVeraSans-Roman-30"/>
     </g>
    </g>
   </g>
   <g id="xtick_10">
    <g id="line2d_12">
     <path d="M 260.582624 333.371043 
L 257.55376 334.748613 
" style="fill:none;stroke:#000000;stroke-linecap:square;"/>
    </g>
    <g id="text_12">
     <!-- 150 -->
     <g transform="translate(240.825193732 357.471892035)scale(0.12 -0.12)">
      <use xlink:href="#BitstreamVeraSans-Roman-31"/>
      <use x="63.623046875" xlink:href="#BitstreamVeraSans-Roman-35"/>
      <use x="127.24609375" xlink:href="#BitstreamVeraSans-Roman-30"/>
     </g>
    </g>
   </g>
   <g id="xtick_11">
    <g id="line2d_13">
     <path d="M 303.862566 339.156464 
L 300.902147 340.559783 
" style="fill:none;stroke:#000000;stroke-linecap:square;"/>
    </g>
    <g id="text_13">
     <!-- 200 -->
     <g transform="translate(284.223483621 363.423350789)scale(0.12 -0.12)">
      <use xlink:href="#BitstreamVeraSans-Roman-32"/>
      <use x="63.623046875" xlink:href="#BitstreamVeraSans-Roman-30"/>
      <use x="127.24609375" xlink:href="#BitstreamVeraSans-Roman-30"/>
     </g>
    </g>
   </g>
   <g id="xtick_12">
    <g id="line2d_14">
     <path d="M 347.954399 345.050414 
L 345.065542 346.480211 
" style="fill:none;stroke:#000000;stroke-linecap:square;"/>
    </g>
    <g id="text_14">
     <!-- 250 -->
     <g transform="translate(328.439603162 369.486963259)scale(0.12 -0.12)">
      <use xlink:href="#BitstreamVeraSans-Roman-32"/>
      <use x="63.623046875" xlink:href="#BitstreamVeraSans-Roman-35"/>
      <use x="127.24609375" xlink:href="#BitstreamVeraSans-Roman-30"/>
     </g>
    </g>
   </g>
  </g>
  <g id="axis3d_3">
   <g id="line2d_15">
    <path d="M 130.012698 316.493952 
L 125.232693 124.793475 
" style="fill:none;stroke:#000000;stroke-linecap:square;stroke-width:0.75;"/>
   </g>
   <g id="text_15">
    <!-- Blue Value -->
    <defs>
     <path d="M 19.671875 34.8125 
L 19.671875 8.109375 
L 35.5 8.109375 
Q 43.453125 8.109375 47.28125 11.40625 
Q 51.125 14.703125 51.125 21.484375 
Q 51.125 28.328125 47.28125 31.5625 
Q 43.453125 34.8125 35.5 34.8125 
z
M 19.671875 64.796875 
L 19.671875 42.828125 
L 34.28125 42.828125 
Q 41.5 42.828125 45.03125 45.53125 
Q 48.578125 48.25 48.578125 53.8125 
Q 48.578125 59.328125 45.03125 62.0625 
Q 41.5 64.796875 34.28125 64.796875 
z
M 9.8125 72.90625 
L 35.015625 72.90625 
Q 46.296875 72.90625 52.390625 68.21875 
Q 58.5 63.53125 58.5 54.890625 
Q 58.5 48.1875 55.375 44.234375 
Q 52.25 40.28125 46.1875 39.3125 
Q 53.46875 37.75 57.5 32.78125 
Q 61.53125 27.828125 61.53125 20.40625 
Q 61.53125 10.640625 54.890625 5.3125 
Q 48.25 0 35.984375 0 
L 9.8125 0 
z
" id="BitstreamVeraSans-Roman-42"/>
    </defs>
    <g transform="translate(78.6119904962 192.687760751)rotate(-271.428360246)scale(0.12 -0.12)">
     <use xlink:href="#BitstreamVeraSans-Roman-42"/>
     <use x="68.603515625" xlink:href="#BitstreamVeraSans-Roman-6c"/>
     <use x="96.38671875" xlink:href="#BitstreamVeraSans-Roman-75"/>
     <use x="159.765625" xlink:href="#BitstreamVeraSans-Roman-65"/>
     <use x="221.2890625" xlink:href="#BitstreamVeraSans-Roman-20"/>
     <use x="253.076171875" xlink:href="#BitstreamVeraSans-Roman-56"/>
     <use x="321.375" xlink:href="#BitstreamVeraSans-Roman-61"/>
     <use x="382.654296875" xlink:href="#BitstreamVeraSans-Roman-6c"/>
     <use x="410.4375" xlink:href="#BitstreamVeraSans-Roman-75"/>
     <use x="473.81640625" xlink:href="#BitstreamVeraSans-Roman-65"/>
    </g>
   </g>
   <g id="Line3DCollection_3">
    <path d="M 129.919643 312.762044 
L 253.161319 263.287747 
L 465.65076 288.535018 
" style="fill:none;stroke:#e6e6e6;"/>
    <path d="M 129.038858 277.43843 
L 252.934575 230.647518 
L 466.46191 254.520488 
" style="fill:none;stroke:#e6e6e6;"/>
    <path d="M 128.148968 241.749713 
L 252.705681 197.697911 
L 467.281104 220.168676 
" style="fill:none;stroke:#e6e6e6;"/>
    <path d="M 127.249833 205.690205 
L 252.474608 164.434506 
L 468.10846 185.474541 
" style="fill:none;stroke:#e6e6e6;"/>
    <path d="M 126.341308 169.254096 
L 252.241323 130.852801 
L 468.944103 150.432939 
" style="fill:none;stroke:#e6e6e6;"/>
    <path d="M 125.423244 132.435456 
L 252.005795 96.948203 
L 469.788157 115.038624 
" style="fill:none;stroke:#e6e6e6;"/>
   </g>
   <g id="xtick_13">
    <g id="line2d_16">
     <path d="M 130.993092 312.331118 
L 127.768126 313.625752 
" style="fill:none;stroke:#000000;stroke-linecap:square;"/>
    </g>
    <g id="text_16">
     <!-- 0 -->
     <g transform="translate(105.699835907 323.352440388)scale(0.12 -0.12)">
      <use xlink:href="#BitstreamVeraSans-Roman-30"/>
     </g>
    </g>
   </g>
   <g id="xtick_14">
    <g id="line2d_17">
     <path d="M 130.118455 277.030705 
L 126.874992 278.255643 
" style="fill:none;stroke:#000000;stroke-linecap:square;"/>
    </g>
    <g id="text_17">
     <!-- 50 -->
     <g transform="translate(100.894230962 287.949578847)scale(0.12 -0.12)">
      <use xlink:href="#BitstreamVeraSans-Roman-35"/>
      <use x="63.623046875" xlink:href="#BitstreamVeraSans-Roman-30"/>
     </g>
    </g>
   </g>
   <g id="xtick_15">
    <g id="line2d_18">
     <path d="M 129.234784 241.365694 
L 125.972614 242.519422 
" style="fill:none;stroke:#000000;stroke-linecap:square;"/>
    </g>
    <g id="text_18">
     <!-- 100 -->
     <g transform="translate(96.0783878075 252.17989201)scale(0.12 -0.12)">
      <use xlink:href="#BitstreamVeraSans-Roman-31"/>
      <use x="63.623046875" xlink:href="#BitstreamVeraSans-Roman-30"/>
      <use x="127.24609375" xlink:href="#BitstreamVeraSans-Roman-30"/>
     </g>
    </g>
   </g>
   <g id="xtick_16">
    <g id="line2d_19">
     <path d="M 128.34194 205.330407 
L 125.060847 206.411374 
" style="fill:none;stroke:#000000;stroke-linecap:square;"/>
    </g>
    <g id="text_19">
     <!-- 150 -->
     <g transform="translate(95.0696464915 216.037648918)scale(0.12 -0.12)">
      <use xlink:href="#BitstreamVeraSans-Roman-31"/>
      <use x="63.623046875" xlink:href="#BitstreamVeraSans-Roman-35"/>
      <use x="127.24609375" xlink:href="#BitstreamVeraSans-Roman-30"/>
     </g>
    </g>
   </g>
   <g id="xtick_17">
    <g id="line2d_20">
     <path d="M 127.439777 168.919047 
L 124.139543 169.925666 
" style="fill:none;stroke:#000000;stroke-linecap:square;"/>
    </g>
    <g id="text_20">
     <!-- 200 -->
     <g transform="translate(94.0503437117 179.516998608)scale(0.12 -0.12)">
      <use xlink:href="#BitstreamVeraSans-Roman-32"/>
      <use x="63.623046875" xlink:href="#BitstreamVeraSans-Roman-30"/>
      <use x="127.24609375" xlink:href="#BitstreamVeraSans-Roman-30"/>
     </g>
    </g>
   </g>
   <g id="xtick_18">
    <g id="line2d_21">
     <path d="M 126.528149 132.125697 
L 123.208552 133.056342 
" style="fill:none;stroke:#000000;stroke-linecap:square;"/>
    </g>
    <g id="text_21">
     <!-- 250 -->
     <g transform="translate(93.0203127282 142.611966953)scale(0.12 -0.12)">
      <use xlink:href="#BitstreamVeraSans-Roman-32"/>
      <use x="63.623046875" xlink:href="#BitstreamVeraSans-Roman-35"/>
      <use x="127.24609375" xlink:href="#BitstreamVeraSans-Roman-30"/>
     </g>
    </g>
   </g>
  </g>
  <g id="axes_1">
   <g id="Path3DCollection_1">
    <defs>
     <path d="M 0 5 
C 1.326016 5 2.597899 4.473168 3.535534 3.535534 
C 4.473168 2.597899 5 1.326016 5 0 
C 5 -1.326016 4.473168 -2.597899 3.535534 -3.535534 
C 2.597899 -4.473168 1.326016 -5 0 -5 
C -1.326016 -5 -2.597899 -4.473168 -3.535534 -3.535534 
C -4.473168 -2.597899 -5 -1.326016 -5 0 
C -5 1.326016 -4.473168 2.597899 -3.535534 3.535534 
C -2.597899 4.473168 -1.326016 5 0 5 
z
" id="C0_0_0eeb5d8649"/>
    </defs>
    <g clip-path="url(#p46eff4544f)">
     <use style="fill:#a00000;fill-opacity:0.3;stroke:#000000;stroke-opacity:0.3;" x="183.189038164" xlink:href="#C0_0_0eeb5d8649" y="293.607908709"/>
    </g>
    <g clip-path="url(#p46eff4544f)">
     <use style="fill:#a30a0a;fill-opacity:0.323294794012;stroke:#000000;stroke-opacity:0.323294794012;" x="189.628258016" xlink:href="#C0_0_0eeb5d8649" y="288.346619069"/>
    </g>
    <g clip-path="url(#p46eff4544f)">
     <use style="fill:#a71515;fill-opacity:0.350574000109;stroke:#000000;stroke-opacity:0.350574000109;" x="196.436971156" xlink:href="#C0_0_0eeb5d8649" y="282.645496422"/>
    </g>
    <g clip-path="url(#p46eff4544f)">
     <use style="fill:#ab1f1f;fill-opacity:0.376341089297;stroke:#000000;stroke-opacity:0.376341089297;" x="202.506780021" xlink:href="#C0_0_0eeb5d8649" y="277.48762956"/>
    </g>
    <g clip-path="url(#p46eff4544f)">
     <use style="fill:#af2a2a;fill-opacity:0.404083557659;stroke:#000000;stroke-opacity:0.404083557659;" x="209.429538733" xlink:href="#C0_0_0eeb5d8649" y="271.690683296"/>
    </g>
    <g clip-path="url(#p46eff4544f)">
     <use style="fill:#b33535;fill-opacity:0.432069865909;stroke:#000000;stroke-opacity:0.432069865909;" x="216.413144399" xlink:href="#C0_0_0eeb5d8649" y="265.842785303"/>
    </g>
    <g clip-path="url(#p46eff4544f)">
     <use style="fill:#b73f3f;fill-opacity:0.458507727877;stroke:#000000;stroke-opacity:0.458507727877;" x="222.644181906" xlink:href="#C0_0_0eeb5d8649" y="260.548624912"/>
    </g>
    <g clip-path="url(#p46eff4544f)">
     <use style="fill:#bb4a4a;fill-opacity:0.486975505669;stroke:#000000;stroke-opacity:0.486975505669;" x="229.74630876" xlink:href="#C0_0_0eeb5d8649" y="254.601141386"/>
    </g>
    <g clip-path="url(#p46eff4544f)">
     <use style="fill:#bf5555;fill-opacity:0.515696769828;stroke:#000000;stroke-opacity:0.515696769828;" x="236.911675264" xlink:href="#C0_0_0eeb5d8649" y="248.600699529"/>
    </g>
    <g clip-path="url(#p46eff4544f)">
     <use style="fill:#c35f5f;fill-opacity:0.54283194214;stroke:#000000;stroke-opacity:0.54283194214;" x="243.310362494" xlink:href="#C0_0_0eeb5d8649" y="243.164826792"/>
    </g>
    <g clip-path="url(#p46eff4544f)">
     <use style="fill:#c76a6a;fill-opacity:0.57205384988;stroke:#000000;stroke-opacity:0.57205384988;" x="250.598963271" xlink:href="#C0_0_0eeb5d8649" y="237.060837847"/>
    </g>
    <g clip-path="url(#p46eff4544f)">
     <use style="fill:#cb7474;fill-opacity:0.599664088339;stroke:#000000;stroke-opacity:0.599664088339;" x="257.111355426" xlink:href="#C0_0_0eeb5d8649" y="231.528740711"/>
    </g>
    <g clip-path="url(#p46eff4544f)">
     <use style="fill:#cf7f7f;fill-opacity:0.629399844852;stroke:#000000;stroke-opacity:0.629399844852;" x="264.526426305" xlink:href="#C0_0_0eeb5d8649" y="225.318482683"/>
    </g>
    <g clip-path="url(#p46eff4544f)">
     <use style="fill:#d38a8a;fill-opacity:0.659406250466;stroke:#000000;stroke-opacity:0.659406250466;" x="272.008987725" xlink:href="#C0_0_0eeb5d8649" y="219.051700089"/>
    </g>
    <g clip-path="url(#p46eff4544f)">
     <use style="fill:#d79494;fill-opacity:0.687761014324;stroke:#000000;stroke-opacity:0.687761014324;" x="278.700441961" xlink:href="#C0_0_0eeb5d8649" y="213.368257039"/>
    </g>
    <g clip-path="url(#p46eff4544f)">
     <use style="fill:#db9f9f;fill-opacity:0.718302193126;stroke:#000000;stroke-opacity:0.718302193126;" x="286.314616094" xlink:href="#C0_0_0eeb5d8649" y="206.990882618"/>
    </g>
    <g clip-path="url(#p46eff4544f)">
     <use style="fill:#dfaaaa;fill-opacity:0.749125117207;stroke:#000000;stroke-opacity:0.749125117207;" x="293.999031709" xlink:href="#C0_0_0eeb5d8649" y="200.554676312"/>
    </g>
    <g clip-path="url(#p46eff4544f)">
     <use style="fill:#e3b4b4;fill-opacity:0.778254932429;stroke:#000000;stroke-opacity:0.778254932429;" x="300.876936849" xlink:href="#C0_0_0eeb5d8649" y="194.713652423"/>
    </g>
    <g clip-path="url(#p46eff4544f)">
     <use style="fill:#e7bfbf;fill-opacity:0.809634705803;stroke:#000000;stroke-opacity:0.809634705803;" x="308.698390637" xlink:href="#C0_0_0eeb5d8649" y="188.162293747"/>
    </g>
    <g clip-path="url(#p46eff4544f)">
     <use style="fill:#ebc9c9;fill-opacity:0.839293169748;stroke:#000000;stroke-opacity:0.839293169748;" x="315.702921458" xlink:href="#C0_0_0eeb5d8649" y="182.214131984"/>
    </g>
    <g clip-path="url(#p46eff4544f)">
     <use style="fill:#efd4d4;fill-opacity:0.871245020012;stroke:#000000;stroke-opacity:0.871245020012;" x="323.665144556" xlink:href="#C0_0_0eeb5d8649" y="175.544482235"/>
    </g>
    <g clip-path="url(#p46eff4544f)">
     <use style="fill:#f3dfdf;fill-opacity:0.903498407226;stroke:#000000;stroke-opacity:0.903498407226;" x="331.702508983" xlink:href="#C0_0_0eeb5d8649" y="168.81188947"/>
    </g>
    <g clip-path="url(#p46eff4544f)">
     <use style="fill:#f7e9e9;fill-opacity:0.933986370356;stroke:#000000;stroke-opacity:0.933986370356;" x="338.906656683" xlink:href="#C0_0_0eeb5d8649" y="162.695034171"/>
    </g>
    <g clip-path="url(#p46eff4544f)">
     <use style="fill:#fbf4f4;fill-opacity:0.966836002335;stroke:#000000;stroke-opacity:0.966836002335;" x="347.090729118" xlink:href="#C0_0_0eeb5d8649" y="155.839158193"/>
    </g>
    <g clip-path="url(#p46eff4544f)">
     <use style="fill:#ffffff;stroke:#000000;" x="355.353121808" xlink:href="#C0_0_0eeb5d8649" y="148.917672586"/>
    </g>
   </g>
  </g>
 </g>
 <defs>
  <clipPath id="p46eff4544f">
   <rect height="345.6" width="446.4" x="72.0" y="43.2"/>
  </clipPath>
 </defs>
</svg>
