<?xml version="1.0" encoding="utf-8" standalone="no"?>
<!DOCTYPE svg PUBLIC "-//W3C//DTD SVG 1.1//EN"
  "http://www.w3.org/Graphics/SVG/1.1/DTD/svg11.dtd">
<!-- Created with matplotlib (http://matplotlib.org/) -->
<svg height="432pt" version="1.1" viewBox="0 0 576 432" width="576pt" xmlns="http://www.w3.org/2000/svg" xmlns:xlink="http://www.w3.org/1999/xlink">
 <defs>
  <style type="text/css">
*{stroke-linecap:butt;stroke-linejoin:round;stroke-miterlimit:100000;}
  </style>
 </defs>
 <g id="figure_1">
  <g id="patch_1">
   <path d="M 0 432 
L 576 432 
L 576 0 
L 0 0 
z
" style="fill:#ffffff;"/>
  </g>
  <g id="patch_2">
   <path d="M 72 388.8 
L 518.4 388.8 
L 518.4 43.2 
L 72 43.2 
z
" style="fill:#ffffff;"/>
  </g>
  <g id="pane3d_1">
   <g id="patch_3">
    <path d="M 365.595136 268.050204 
L 467.212537 320.794372 
L 471.880088 127.815546 
L 367.244585 90.832744 
" style="fill:#f2f2f2;opacity:0.5;stroke:#f2f2f2;stroke-linejoin:miter;"/>
   </g>
  </g>
  <g id="pane3d_2">
   <g id="patch_4">
    <path d="M 365.595136 268.050204 
L 144.114787 288.222388 
L 139.938644 104.955735 
L 367.244585 90.832744 
" style="fill:#e6e6e6;opacity:0.5;stroke:#e6e6e6;stroke-linejoin:miter;"/>
   </g>
  </g>
  <g id="pane3d_3">
   <g id="patch_5">
    <path d="M 365.595136 268.050204 
L 144.114787 288.222388 
L 227.976803 345.048782 
L 467.212537 320.794372 
" style="fill:#ececec;opacity:0.5;stroke:#ececec;stroke-linejoin:miter;"/>
   </g>
  </g>
  <g id="axis3d_1">
   <g id="line2d_1">
    <path d="M 467.212537 320.794372 
L 227.976803 345.048782 
" style="fill:none;stroke:#000000;stroke-linecap:square;stroke-width:0.75;"/>
   </g>
   <g id="text_1">
    <!-- Red Value -->
    <defs>
     <path id="BitstreamVeraSans-Roman-20"/>
     <path d="M 9.421875 75.984375 
L 18.40625 75.984375 
L 18.40625 0 
L 9.421875 0 
z
" id="BitstreamVeraSans-Roman-6c"/>
     <path d="M 44.390625 34.1875 
Q 47.5625 33.109375 50.5625 29.59375 
Q 53.5625 26.078125 56.59375 19.921875 
L 66.609375 0 
L 56 0 
L 46.6875 18.703125 
Q 43.0625 26.03125 39.671875 28.421875 
Q 36.28125 30.8125 30.421875 30.8125 
L 19.671875 30.8125 
L 19.671875 0 
L 9.8125 0 
L 9.8125 72.90625 
L 32.078125 72.90625 
Q 44.578125 72.90625 50.734375 67.671875 
Q 56.890625 62.453125 56.890625 51.90625 
Q 56.890625 45.015625 53.6875 40.46875 
Q 50.484375 35.9375 44.390625 34.1875 
M 19.671875 64.796875 
L 19.671875 38.921875 
L 32.078125 38.921875 
Q 39.203125 38.921875 42.84375 42.21875 
Q 46.484375 45.515625 46.484375 51.90625 
Q 46.484375 58.296875 42.84375 61.546875 
Q 39.203125 64.796875 32.078125 64.796875 
z
" id="BitstreamVeraSans-Roman-52"/>
     <path d="M 28.609375 0 
L 0.78125 72.90625 
L 11.078125 72.90625 
L 34.1875 11.53125 
L 57.328125 72.90625 
L 67.578125 72.90625 
L 39.796875 0 
z
" id="BitstreamVeraSans-Roman-56"/>
     <path d="M 56.203125 29.59375 
L 56.203125 25.203125 
L 14.890625 25.203125 
Q 15.484375 15.921875 20.484375 11.0625 
Q 25.484375 6.203125 34.421875 6.203125 
Q 39.59375 6.203125 44.453125 7.46875 
Q 49.3125 8.734375 54.109375 11.28125 
L 54.109375 2.78125 
Q 49.265625 0.734375 44.1875 -0.34375 
Q 39.109375 -1.421875 33.890625 -1.421875 
Q 20.796875 -1.421875 13.15625 6.1875 
Q 5.515625 13.8125 5.515625 26.8125 
Q 5.515625 40.234375 12.765625 48.109375 
Q 20.015625 56 32.328125 56 
Q 43.359375 56 49.78125 48.890625 
Q 56.203125 41.796875 56.203125 29.59375 
M 47.21875 32.234375 
Q 47.125 39.59375 43.09375 43.984375 
Q 39.0625 48.390625 32.421875 48.390625 
Q 24.90625 48.390625 20.390625 44.140625 
Q 15.875 39.890625 15.1875 32.171875 
z
" id="BitstreamVeraSans-Roman-65"/>
     <path d="M 45.40625 46.390625 
L 45.40625 75.984375 
L 54.390625 75.984375 
L 54.390625 0 
L 45.40625 0 
L 45.40625 8.203125 
Q 42.578125 3.328125 38.25 0.953125 
Q 33.9375 -1.421875 27.875 -1.421875 
Q 17.96875 -1.421875 11.734375 6.484375 
Q 5.515625 14.40625 5.515625 27.296875 
Q 5.515625 40.1875 11.734375 48.09375 
Q 17.96875 56 27.875 56 
Q 33.9375 56 38.25 53.625 
Q 42.578125 51.265625 45.40625 46.390625 
M 14.796875 27.296875 
Q 14.796875 17.390625 18.875 11.75 
Q 22.953125 6.109375 30.078125 6.109375 
Q 37.203125 6.109375 41.296875 11.75 
Q 45.40625 17.390625 45.40625 27.296875 
Q 45.40625 37.203125 41.296875 42.84375 
Q 37.203125 48.484375 30.078125 48.484375 
Q 22.953125 48.484375 18.875 42.84375 
Q 14.796875 37.203125 14.796875 27.296875 
" id="BitstreamVeraSans-Roman-64"/>
     <path d="M 8.5 21.578125 
L 8.5 54.6875 
L 17.484375 54.6875 
L 17.484375 21.921875 
Q 17.484375 14.15625 20.5 10.265625 
Q 23.53125 6.390625 29.59375 6.390625 
Q 36.859375 6.390625 41.078125 11.03125 
Q 45.3125 15.671875 45.3125 23.6875 
L 45.3125 54.6875 
L 54.296875 54.6875 
L 54.296875 0 
L 45.3125 0 
L 45.3125 8.40625 
Q 42.046875 3.421875 37.71875 1 
Q 33.40625 -1.421875 27.6875 -1.421875 
Q 18.265625 -1.421875 13.375 4.4375 
Q 8.5 10.296875 8.5 21.578125 
" id="BitstreamVeraSans-Roman-75"/>
     <path d="M 34.28125 27.484375 
Q 23.390625 27.484375 19.1875 25 
Q 14.984375 22.515625 14.984375 16.5 
Q 14.984375 11.71875 18.140625 8.90625 
Q 21.296875 6.109375 26.703125 6.109375 
Q 34.1875 6.109375 38.703125 11.40625 
Q 43.21875 16.703125 43.21875 25.484375 
L 43.21875 27.484375 
z
M 52.203125 31.203125 
L 52.203125 0 
L 43.21875 0 
L 43.21875 8.296875 
Q 40.140625 3.328125 35.546875 0.953125 
Q 30.953125 -1.421875 24.3125 -1.421875 
Q 15.921875 -1.421875 10.953125 3.296875 
Q 6 8.015625 6 15.921875 
Q 6 25.140625 12.171875 29.828125 
Q 18.359375 34.515625 30.609375 34.515625 
L 43.21875 34.515625 
L 43.21875 35.40625 
Q 43.21875 41.609375 39.140625 45 
Q 35.0625 48.390625 27.6875 48.390625 
Q 23 48.390625 18.546875 47.265625 
Q 14.109375 46.140625 10.015625 43.890625 
L 10.015625 52.203125 
Q 14.9375 54.109375 19.578125 55.046875 
Q 24.21875 56 28.609375 56 
Q 40.484375 56 46.34375 49.84375 
Q 52.203125 43.703125 52.203125 31.203125 
" id="BitstreamVeraSans-Roman-61"/>
    </defs>
    <g transform="translate(332.715499055 370.978774799)rotate(-5.78903174144)scale(0.12 -0.12)">
     <use xlink:href="#BitstreamVeraSans-Roman-52"/>
     <use x="69.419921875" xlink:href="#BitstreamVeraSans-Roman-65"/>
     <use x="130.943359375" xlink:href="#BitstreamVeraSans-Roman-64"/>
     <use x="194.419921875" xlink:href="#BitstreamVeraSans-Roman-20"/>
     <use x="226.20703125" xlink:href="#BitstreamVeraSans-Roman-56"/>
     <use x="294.505859375" xlink:href="#BitstreamVeraSans-Roman-61"/>
     <use x="355.78515625" xlink:href="#BitstreamVeraSans-Roman-6c"/>
     <use x="383.568359375" xlink:href="#BitstreamVeraSans-Roman-75"/>
     <use x="446.947265625" xlink:href="#BitstreamVeraSans-Roman-65"/>
    </g>
   </g>
   <g id="Line3DCollection_1">
    <path d="M 462.607265 321.261267 
L 361.317281 268.439826 
L 362.858204 91.105279 
" style="fill:none;stroke:#e6e6e6;"/>
    <path d="M 418.915622 325.690853 
L 320.760085 272.133731 
L 321.26429 93.689596 
" style="fill:none;stroke:#e6e6e6;"/>
    <path d="M 374.58531 330.185188 
L 279.662018 275.876897 
L 279.101258 96.309272 
" style="fill:none;stroke:#e6e6e6;"/>
    <path d="M 329.602222 334.745703 
L 238.012187 279.670317 
L 236.357348 98.965041 
" style="fill:none;stroke:#e6e6e6;"/>
    <path d="M 283.951833 339.373872 
L 195.799406 283.515011 
L 193.020473 101.657651 
" style="fill:none;stroke:#e6e6e6;"/>
    <path d="M 237.619183 344.07121 
L 153.012183 287.412023 
L 149.078206 104.387875 
" style="fill:none;stroke:#e6e6e6;"/>
   </g>
   <g id="xtick_1">
    <g id="line2d_2">
     <path d="M 461.720865 320.799021 
L 464.384102 322.187865 
" style="fill:none;stroke:#000000;stroke-linecap:square;"/>
    </g>
    <g id="text_2">
     <!-- 0 -->
     <defs>
      <path d="M 31.78125 66.40625 
Q 24.171875 66.40625 20.328125 58.90625 
Q 16.5 51.421875 16.5 36.375 
Q 16.5 21.390625 20.328125 13.890625 
Q 24.171875 6.390625 31.78125 6.390625 
Q 39.453125 6.390625 43.28125 13.890625 
Q 47.125 21.390625 47.125 36.375 
Q 47.125 51.421875 43.28125 58.90625 
Q 39.453125 66.40625 31.78125 66.40625 
M 31.78125 74.21875 
Q 44.046875 74.21875 50.515625 64.515625 
Q 56.984375 54.828125 56.984375 36.375 
Q 56.984375 17.96875 50.515625 8.265625 
Q 44.046875 -1.421875 31.78125 -1.421875 
Q 19.53125 -1.421875 13.0625 8.265625 
Q 6.59375 17.96875 6.59375 36.375 
Q 6.59375 54.828125 13.0625 64.515625 
Q 19.53125 74.21875 31.78125 74.21875 
" id="BitstreamVeraSans-Roman-30"/>
     </defs>
     <g transform="translate(465.008559206 344.728325945)scale(0.12 -0.12)">
      <use xlink:href="#BitstreamVeraSans-Roman-30"/>
     </g>
    </g>
   </g>
   <g id="xtick_2">
    <g id="line2d_3">
     <path d="M 418.056117 325.221876 
L 420.638574 326.630956 
" style="fill:none;stroke:#000000;stroke-linecap:square;"/>
    </g>
    <g id="text_3">
     <!-- 50 -->
     <defs>
      <path d="M 10.796875 72.90625 
L 49.515625 72.90625 
L 49.515625 64.59375 
L 19.828125 64.59375 
L 19.828125 46.734375 
Q 21.96875 47.46875 24.109375 47.828125 
Q 26.265625 48.1875 28.421875 48.1875 
Q 40.625 48.1875 47.75 41.5 
Q 54.890625 34.8125 54.890625 23.390625 
Q 54.890625 11.625 47.5625 5.09375 
Q 40.234375 -1.421875 26.90625 -1.421875 
Q 22.3125 -1.421875 17.546875 -0.640625 
Q 12.796875 0.140625 7.71875 1.703125 
L 7.71875 11.625 
Q 12.109375 9.234375 16.796875 8.0625 
Q 21.484375 6.890625 26.703125 6.890625 
Q 35.15625 6.890625 40.078125 11.328125 
Q 45.015625 15.765625 45.015625 23.390625 
Q 45.015625 31 40.078125 35.4375 
Q 35.15625 39.890625 26.703125 39.890625 
Q 22.75 39.890625 18.8125 39.015625 
Q 14.890625 38.140625 10.796875 36.28125 
z
" id="BitstreamVeraSans-Roman-35"/>
     </defs>
     <g transform="translate(417.371595319 349.279988081)scale(0.12 -0.12)">
      <use xlink:href="#BitstreamVeraSans-Roman-35"/>
      <use x="63.623046875" xlink:href="#BitstreamVeraSans-Roman-30"/>
     </g>
    </g>
   </g>
   <g id="xtick_3">
    <g id="line2d_4">
     <path d="M 373.753584 329.709334 
L 376.252605 331.139094 
" style="fill:none;stroke:#000000;stroke-linecap:square;"/>
    </g>
    <g id="text_4">
     <!-- 100 -->
     <defs>
      <path d="M 12.40625 8.296875 
L 28.515625 8.296875 
L 28.515625 63.921875 
L 10.984375 60.40625 
L 10.984375 69.390625 
L 28.421875 72.90625 
L 38.28125 72.90625 
L 38.28125 8.296875 
L 54.390625 8.296875 
L 54.390625 0 
L 12.40625 0 
z
" id="BitstreamVeraSans-Roman-31"/>
     </defs>
     <g transform="translate(369.09153739 353.898450368)scale(0.12 -0.12)">
      <use xlink:href="#BitstreamVeraSans-Roman-31"/>
      <use x="63.623046875" xlink:href="#BitstreamVeraSans-Roman-30"/>
      <use x="127.24609375" xlink:href="#BitstreamVeraSans-Roman-30"/>
     </g>
    </g>
   </g>
   <g id="xtick_4">
    <g id="line2d_5">
     <path d="M 328.799188 334.262819 
L 331.212026 335.713719 
" style="fill:none;stroke:#000000;stroke-linecap:square;"/>
    </g>
    <g id="text_5">
     <!-- 150 -->
     <g transform="translate(323.971623703 358.585194214)scale(0.12 -0.12)">
      <use xlink:href="#BitstreamVeraSans-Roman-31"/>
      <use x="63.623046875" xlink:href="#BitstreamVeraSans-Roman-35"/>
      <use x="127.24609375" xlink:href="#BitstreamVeraSans-Roman-30"/>
     </g>
    </g>
   </g>
   <g id="xtick_5">
    <g id="line2d_6">
     <path d="M 283.178438 338.883801 
L 285.502249 340.356312 
" style="fill:none;stroke:#000000;stroke-linecap:square;"/>
    </g>
    <g id="text_6">
     <!-- 200 -->
     <defs>
      <path d="M 19.1875 8.296875 
L 53.609375 8.296875 
L 53.609375 0 
L 7.328125 0 
L 7.328125 8.296875 
Q 12.9375 14.109375 22.625 23.890625 
Q 32.328125 33.6875 34.8125 36.53125 
Q 39.546875 41.84375 41.421875 45.53125 
Q 43.3125 49.21875 43.3125 52.78125 
Q 43.3125 58.59375 39.234375 62.25 
Q 35.15625 65.921875 28.609375 65.921875 
Q 23.96875 65.921875 18.8125 64.3125 
Q 13.671875 62.703125 7.8125 59.421875 
L 7.8125 69.390625 
Q 13.765625 71.78125 18.9375 73 
Q 24.125 74.21875 28.421875 74.21875 
Q 39.75 74.21875 46.484375 68.546875 
Q 53.21875 62.890625 53.21875 53.421875 
Q 53.21875 48.921875 51.53125 44.890625 
Q 49.859375 40.875 45.40625 35.40625 
Q 44.1875 33.984375 37.640625 27.21875 
Q 31.109375 20.453125 19.1875 8.296875 
" id="BitstreamVeraSans-Roman-32"/>
     </defs>
     <g transform="translate(278.179667698 363.341745158)scale(0.12 -0.12)">
      <use xlink:href="#BitstreamVeraSans-Roman-32"/>
      <use x="63.623046875" xlink:href="#BitstreamVeraSans-Roman-30"/>
      <use x="127.24609375" xlink:href="#BitstreamVeraSans-Roman-30"/>
     </g>
    </g>
   </g>
   <g id="xtick_6">
    <g id="line2d_7">
     <path d="M 236.876404 343.57379 
L 239.108248 345.0684 
" style="fill:none;stroke:#000000;stroke-linecap:square;"/>
    </g>
    <g id="text_7">
     <!-- 250 -->
     <g transform="translate(231.700542033 368.169674522)scale(0.12 -0.12)">
      <use xlink:href="#BitstreamVeraSans-Roman-32"/>
      <use x="63.623046875" xlink:href="#BitstreamVeraSans-Roman-35"/>
      <use x="127.24609375" xlink:href="#BitstreamVeraSans-Roman-30"/>
     </g>
    </g>
   </g>
  </g>
  <g id="axis3d_2">
   <g id="line2d_8">
    <path d="M 144.114787 288.222388 
L 227.976803 345.048782 
" style="fill:none;stroke:#000000;stroke-linecap:square;stroke-width:0.75;"/>
   </g>
   <g id="text_8">
    <!-- Green Value -->
    <defs>
     <path d="M 59.515625 10.40625 
L 59.515625 29.984375 
L 43.40625 29.984375 
L 43.40625 38.09375 
L 69.28125 38.09375 
L 69.28125 6.78125 
Q 63.578125 2.734375 56.6875 0.65625 
Q 49.8125 -1.421875 42 -1.421875 
Q 24.90625 -1.421875 15.25 8.5625 
Q 5.609375 18.5625 5.609375 36.375 
Q 5.609375 54.25 15.25 64.234375 
Q 24.90625 74.21875 42 74.21875 
Q 49.125 74.21875 55.546875 72.453125 
Q 61.96875 70.703125 67.390625 67.28125 
L 67.390625 56.78125 
Q 61.921875 61.421875 55.765625 63.765625 
Q 49.609375 66.109375 42.828125 66.109375 
Q 29.4375 66.109375 22.71875 58.640625 
Q 16.015625 51.171875 16.015625 36.375 
Q 16.015625 21.625 22.71875 14.15625 
Q 29.4375 6.6875 42.828125 6.6875 
Q 48.046875 6.6875 52.140625 7.59375 
Q 56.25 8.5 59.515625 10.40625 
" id="BitstreamVeraSans-Roman-47"/>
     <path d="M 54.890625 33.015625 
L 54.890625 0 
L 45.90625 0 
L 45.90625 32.71875 
Q 45.90625 40.484375 42.875 44.328125 
Q 39.84375 48.1875 33.796875 48.1875 
Q 26.515625 48.1875 22.3125 43.546875 
Q 18.109375 38.921875 18.109375 30.90625 
L 18.109375 0 
L 9.078125 0 
L 9.078125 54.6875 
L 18.109375 54.6875 
L 18.109375 46.1875 
Q 21.34375 51.125 25.703125 53.5625 
Q 30.078125 56 35.796875 56 
Q 45.21875 56 50.046875 50.171875 
Q 54.890625 44.34375 54.890625 33.015625 
" id="BitstreamVeraSans-Roman-6e"/>
     <path d="M 41.109375 46.296875 
Q 39.59375 47.171875 37.8125 47.578125 
Q 36.03125 48 33.890625 48 
Q 26.265625 48 22.1875 43.046875 
Q 18.109375 38.09375 18.109375 28.8125 
L 18.109375 0 
L 9.078125 0 
L 9.078125 54.6875 
L 18.109375 54.6875 
L 18.109375 46.1875 
Q 20.953125 51.171875 25.484375 53.578125 
Q 30.03125 56 36.53125 56 
Q 37.453125 56 38.578125 55.875 
Q 39.703125 55.765625 41.0625 55.515625 
z
" id="BitstreamVeraSans-Roman-72"/>
    </defs>
    <g transform="translate(121.736915836 323.599827704)rotate(-325.877734463)scale(0.12 -0.12)">
     <use xlink:href="#BitstreamVeraSans-Roman-47"/>
     <use x="77.490234375" xlink:href="#BitstreamVeraSans-Roman-72"/>
     <use x="118.572265625" xlink:href="#BitstreamVeraSans-Roman-65"/>
     <use x="180.095703125" xlink:href="#BitstreamVeraSans-Roman-65"/>
     <use x="241.619140625" xlink:href="#BitstreamVeraSans-Roman-6e"/>
     <use x="304.998046875" xlink:href="#BitstreamVeraSans-Roman-20"/>
     <use x="336.78515625" xlink:href="#BitstreamVeraSans-Roman-56"/>
     <use x="405.083984375" xlink:href="#BitstreamVeraSans-Roman-61"/>
     <use x="466.36328125" xlink:href="#BitstreamVeraSans-Roman-6c"/>
     <use x="494.146484375" xlink:href="#BitstreamVeraSans-Roman-75"/>
     <use x="557.525390625" xlink:href="#BitstreamVeraSans-Roman-65"/>
    </g>
   </g>
   <g id="Line3DCollection_2">
    <path d="M 369.155106 91.508006 
L 367.454978 269.015549 
L 145.6445 289.258949 
" style="fill:none;stroke:#e6e6e6;"/>
    <path d="M 387.474763 97.982981 
L 385.280311 278.267727 
L 160.315509 299.200286 
" style="fill:none;stroke:#e6e6e6;"/>
    <path d="M 406.428305 104.681999 
L 403.706466 287.83176 
L 175.49958 309.489282 
" style="fill:none;stroke:#e6e6e6;"/>
    <path d="M 426.049211 111.616893 
L 422.76434 297.723686 
L 191.224104 320.1445 
" style="fill:none;stroke:#e6e6e6;"/>
    <path d="M 446.373361 118.800344 
L 442.486988 307.960659 
L 207.518459 331.185845 
" style="fill:none;stroke:#e6e6e6;"/>
    <path d="M 467.439251 126.245958 
L 462.909809 318.561055 
L 224.414192 342.634694 
" style="fill:none;stroke:#e6e6e6;"/>
   </g>
   <g id="xtick_7">
    <g id="line2d_9">
     <path d="M 147.482798 289.091178 
L 141.964702 289.594784 
" style="fill:none;stroke:#000000;stroke-linecap:square;"/>
    </g>
    <g id="text_9">
     <!-- 0 -->
     <g transform="translate(128.680585273 310.008360968)scale(0.12 -0.12)">
      <use xlink:href="#BitstreamVeraSans-Roman-30"/>
     </g>
    </g>
   </g>
   <g id="xtick_8">
    <g id="line2d_10">
     <path d="M 162.181061 299.0267 
L 156.5811 299.547766 
" style="fill:none;stroke:#000000;stroke-linecap:square;"/>
    </g>
    <g id="text_10">
     <!-- 50 -->
     <g transform="translate(139.317004278 320.155782479)scale(0.12 -0.12)">
      <use xlink:href="#BitstreamVeraSans-Roman-35"/>
      <use x="63.623046875" xlink:href="#BitstreamVeraSans-Roman-30"/>
     </g>
    </g>
   </g>
   <g id="xtick_9">
    <g id="line2d_11">
     <path d="M 177.393184 309.309574 
L 171.708957 309.849024 
" style="fill:none;stroke:#000000;stroke-linecap:square;"/>
    </g>
    <g id="text_11">
     <!-- 100 -->
     <g transform="translate(150.459207097 330.658291185)scale(0.12 -0.12)">
      <use xlink:href="#BitstreamVeraSans-Roman-31"/>
      <use x="63.623046875" xlink:href="#BitstreamVeraSans-Roman-30"/>
      <use x="127.24609375" xlink:href="#BitstreamVeraSans-Roman-30"/>
     </g>
    </g>
   </g>
   <g id="xtick_10">
    <g id="line2d_12">
     <path d="M 193.146594 319.958338 
L 187.375595 320.517164 
" style="fill:none;stroke:#000000;stroke-linecap:square;"/>
    </g>
    <g id="text_12">
     <!-- 150 -->
     <g transform="translate(165.951714726 341.534857265)scale(0.12 -0.12)">
      <use xlink:href="#BitstreamVeraSans-Roman-31"/>
      <use x="63.623046875" xlink:href="#BitstreamVeraSans-Roman-35"/>
      <use x="127.24609375" xlink:href="#BitstreamVeraSans-Roman-30"/>
     </g>
    </g>
   </g>
   <g id="xtick_11">
    <g id="line2d_13">
     <path d="M 209.470705 330.992877 
L 203.610321 331.57214 
" style="fill:none;stroke:#000000;stroke-linecap:square;"/>
    </g>
    <g id="text_13">
     <!-- 200 -->
     <g transform="translate(182.00600782 352.805826684)scale(0.12 -0.12)">
      <use xlink:href="#BitstreamVeraSans-Roman-32"/>
      <use x="63.623046875" xlink:href="#BitstreamVeraSans-Roman-30"/>
      <use x="127.24609375" xlink:href="#BitstreamVeraSans-Roman-30"/>
     </g>
    </g>
   </g>
   <g id="xtick_12">
    <g id="line2d_14">
     <path d="M 226.397101 342.43454 
L 220.444603 343.035383 
" style="fill:none;stroke:#000000;stroke-linecap:square;"/>
    </g>
    <g id="text_14">
     <!-- 250 -->
     <g transform="translate(198.65320762 364.493048212)scale(0.12 -0.12)">
      <use xlink:href="#BitstreamVeraSans-Roman-32"/>
      <use x="63.623046875" xlink:href="#BitstreamVeraSans-Roman-35"/>
      <use x="127.24609375" xlink:href="#BitstreamVeraSans-Roman-30"/>
     </g>
    </g>
   </g>
  </g>
  <g id="axis3d_3">
   <g id="line2d_15">
    <path d="M 144.114787 288.222388 
L 139.938644 104.955735 
" style="fill:none;stroke:#000000;stroke-linecap:square;stroke-width:0.75;"/>
   </g>
   <g id="text_15">
    <!-- Blue Value -->
    <defs>
     <path d="M 19.671875 34.8125 
L 19.671875 8.109375 
L 35.5 8.109375 
Q 43.453125 8.109375 47.28125 11.40625 
Q 51.125 14.703125 51.125 21.484375 
Q 51.125 28.328125 47.28125 31.5625 
Q 43.453125 34.8125 35.5 34.8125 
z
M 19.671875 64.796875 
L 19.671875 42.828125 
L 34.28125 42.828125 
Q 41.5 42.828125 45.03125 45.53125 
Q 48.578125 48.25 48.578125 53.8125 
Q 48.578125 59.328125 45.03125 62.0625 
Q 41.5 64.796875 34.28125 64.796875 
z
M 9.8125 72.90625 
L 35.015625 72.90625 
Q 46.296875 72.90625 52.390625 68.21875 
Q 58.5 63.53125 58.5 54.890625 
Q 58.5 48.1875 55.375 44.234375 
Q 52.25 40.28125 46.1875 39.3125 
Q 53.46875 37.75 57.5 32.78125 
Q 61.53125 27.828125 61.53125 20.40625 
Q 61.53125 10.640625 54.890625 5.3125 
Q 48.25 0 35.984375 0 
L 9.8125 0 
z
" id="BitstreamVeraSans-Roman-42"/>
    </defs>
    <g transform="translate(99.2296697042 162.455417992)rotate(-271.305387119)scale(0.12 -0.12)">
     <use xlink:href="#BitstreamVeraSans-Roman-42"/>
     <use x="68.603515625" xlink:href="#BitstreamVeraSans-Roman-6c"/>
     <use x="96.38671875" xlink:href="#BitstreamVeraSans-Roman-75"/>
     <use x="159.765625" xlink:href="#BitstreamVeraSans-Roman-65"/>
     <use x="221.2890625" xlink:href="#BitstreamVeraSans-Roman-20"/>
     <use x="253.076171875" xlink:href="#BitstreamVeraSans-Roman-56"/>
     <use x="321.375" xlink:href="#BitstreamVeraSans-Roman-61"/>
     <use x="382.654296875" xlink:href="#BitstreamVeraSans-Roman-6c"/>
     <use x="410.4375" xlink:href="#BitstreamVeraSans-Roman-75"/>
     <use x="473.81640625" xlink:href="#BitstreamVeraSans-Roman-65"/>
    </g>
   </g>
   <g id="Line3DCollection_3">
    <path d="M 144.033384 284.650106 
L 365.627317 264.59269 
L 467.303385 317.038307 
" style="fill:none;stroke:#e6e6e6;"/>
    <path d="M 143.26309 250.846377 
L 365.931779 231.881175 
L 468.163317 281.484614 
" style="fill:none;stroke:#e6e6e6;"/>
    <path d="M 142.48521 216.709731 
L 366.239134 198.858868 
L 469.032201 245.560803 
" style="fill:none;stroke:#e6e6e6;"/>
    <path d="M 141.699631 182.235227 
L 366.549423 165.521319 
L 469.910177 209.261064 
" style="fill:none;stroke:#e6e6e6;"/>
    <path d="M 140.906238 147.417824 
L 366.862688 131.86399 
L 470.79739 172.579466 
" style="fill:none;stroke:#e6e6e6;"/>
    <path d="M 140.104915 112.25238 
L 367.178972 97.882259 
L 471.693984 135.509952 
" style="fill:none;stroke:#e6e6e6;"/>
   </g>
   <g id="xtick_13">
    <g id="line2d_16">
     <path d="M 145.869806 284.483884 
L 140.357346 284.98284 
" style="fill:none;stroke:#000000;stroke-linecap:square;"/>
    </g>
    <g id="text_16">
     <!-- 0 -->
     <g transform="translate(122.467405155 291.990023411)scale(0.12 -0.12)">
      <use xlink:href="#BitstreamVeraSans-Roman-30"/>
     </g>
    </g>
   </g>
   <g id="xtick_14">
    <g id="line2d_17">
     <path d="M 145.108733 250.689179 
L 139.56858 251.161047 
" style="fill:none;stroke:#000000;stroke-linecap:square;"/>
    </g>
    <g id="text_17">
     <!-- 50 -->
     <g transform="translate(117.79531087 258.282862454)scale(0.12 -0.12)">
      <use xlink:href="#BitstreamVeraSans-Roman-35"/>
      <use x="63.623046875" xlink:href="#BitstreamVeraSans-Roman-30"/>
     </g>
    </g>
   </g>
   <g id="xtick_15">
    <g id="line2d_18">
     <path d="M 144.340166 216.561744 
L 138.772041 217.005964 
" style="fill:none;stroke:#000000;stroke-linecap:square;"/>
    </g>
    <g id="text_18">
     <!-- 100 -->
     <g transform="translate(113.114826454 224.244775404)scale(0.12 -0.12)">
      <use xlink:href="#BitstreamVeraSans-Roman-31"/>
      <use x="63.623046875" xlink:href="#BitstreamVeraSans-Roman-30"/>
      <use x="127.24609375" xlink:href="#BitstreamVeraSans-Roman-30"/>
     </g>
    </g>
   </g>
   <g id="xtick_16">
    <g id="line2d_19">
     <path d="M 143.563995 182.096642 
L 137.967613 182.512641 
" style="fill:none;stroke:#000000;stroke-linecap:square;"/>
    </g>
    <g id="text_19">
     <!-- 150 -->
     <g transform="translate(112.243327738 189.870864831)scale(0.12 -0.12)">
      <use xlink:href="#BitstreamVeraSans-Roman-31"/>
      <use x="63.623046875" xlink:href="#BitstreamVeraSans-Roman-35"/>
      <use x="127.24609375" xlink:href="#BitstreamVeraSans-Roman-30"/>
     </g>
    </g>
   </g>
   <g id="xtick_17">
    <g id="line2d_20">
     <path d="M 142.780105 147.288835 
L 137.15518 147.67603 
" style="fill:none;stroke:#000000;stroke-linecap:square;"/>
    </g>
    <g id="text_20">
     <!-- 200 -->
     <g transform="translate(111.363188093 155.156136188)scale(0.12 -0.12)">
      <use xlink:href="#BitstreamVeraSans-Roman-32"/>
      <use x="63.623046875" xlink:href="#BitstreamVeraSans-Roman-30"/>
      <use x="127.24609375" xlink:href="#BitstreamVeraSans-Roman-30"/>
     </g>
    </g>
   </g>
   <g id="xtick_18">
    <g id="line2d_21">
     <path d="M 141.988383 112.133187 
L 136.334621 112.490979 
" style="fill:none;stroke:#000000;stroke-linecap:square;"/>
    </g>
    <g id="text_21">
     <!-- 250 -->
     <g transform="translate(110.474278366 120.095495393)scale(0.12 -0.12)">
      <use xlink:href="#BitstreamVeraSans-Roman-32"/>
      <use x="63.623046875" xlink:href="#BitstreamVeraSans-Roman-35"/>
      <use x="127.24609375" xlink:href="#BitstreamVeraSans-Roman-30"/>
     </g>
    </g>
   </g>
  </g>
  <g id="axes_1">
   <g id="Path3DCollection_1">
    <defs>
     <path d="M 0 5 
C 1.326016 5 2.597899 4.473168 3.535534 3.535534 
C 4.473168 2.597899 5 1.326016 5 0 
C 5 -1.326016 4.473168 -2.597899 3.535534 -3.535534 
C 2.597899 -4.473168 1.326016 -5 0 -5 
C -1.326016 -5 -2.597899 -4.473168 -3.535534 -3.535534 
C -4.473168 -2.597899 -5 -1.326016 -5 0 
C -5 1.326016 -4.473168 2.597899 -3.535534 3.535534 
C -2.597899 4.473168 -1.326016 5 0 5 
z
" id="C0_0_317611f619"/>
    </defs>
    <g clip-path="url(#peb91270435)">
     <use style="fill:#a00000;fill-opacity:0.3;stroke:#000000;stroke-opacity:0.3;" x="231.239663542" xlink:href="#C0_0_317611f619" y="277.910091618"/>
    </g>
    <g clip-path="url(#peb91270435)">
     <use style="fill:#a30a0a;fill-opacity:0.323711416241;stroke:#000000;stroke-opacity:0.323711416241;" x="231.779683697" xlink:href="#C0_0_317611f619" y="273.35406696"/>
    </g>
    <g clip-path="url(#peb91270435)">
     <use style="fill:#a71515;fill-opacity:0.350536979817;stroke:#000000;stroke-opacity:0.350536979817;" x="231.784017865" xlink:href="#C0_0_317611f619" y="268.3455645"/>
    </g>
    <g clip-path="url(#peb91270435)">
     <use style="fill:#ab1f1f;fill-opacity:0.375426078874;stroke:#000000;stroke-opacity:0.375426078874;" x="231.47703996" xlink:href="#C0_0_317611f619" y="263.773407367"/>
    </g>
    <g clip-path="url(#peb91270435)">
     <use style="fill:#af2a2a;fill-opacity:0.402806275086;stroke:#000000;stroke-opacity:0.402806275086;" x="231.479791943" xlink:href="#C0_0_317611f619" y="258.661753551"/>
    </g>
    <g clip-path="url(#peb91270435)">
     <use style="fill:#b33535;fill-opacity:0.430482430291;stroke:#000000;stroke-opacity:0.430482430291;" x="231.482573673" xlink:href="#C0_0_317611f619" y="253.494846664"/>
    </g>
    <g clip-path="url(#peb91270435)">
     <use style="fill:#b73f3f;fill-opacity:0.456164851811;stroke:#000000;stroke-opacity:0.456164851811;" x="231.169226014" xlink:href="#C0_0_317611f619" y="248.776133956"/>
    </g>
    <g clip-path="url(#peb91270435)">
     <use style="fill:#bb4a4a;fill-opacity:0.484422368704;stroke:#000000;stroke-opacity:0.484422368704;" x="231.170340812" xlink:href="#C0_0_317611f619" y="243.501106649"/>
    </g>
    <g clip-path="url(#peb91270435)">
     <use style="fill:#bf5555;fill-opacity:0.512990222639;stroke:#000000;stroke-opacity:0.512990222639;" x="231.171467854" xlink:href="#C0_0_317611f619" y="238.168146568"/>
    </g>
    <g clip-path="url(#peb91270435)">
     <use style="fill:#c35f5f;fill-opacity:0.539504510036;stroke:#000000;stroke-opacity:0.539504510036;" x="230.851496278" xlink:href="#C0_0_317611f619" y="233.295744609"/>
    </g>
    <g clip-path="url(#peb91270435)">
     <use style="fill:#c76a6a;fill-opacity:0.568682200211;stroke:#000000;stroke-opacity:0.568682200211;" x="230.850865829" xlink:href="#C0_0_317611f619" y="227.849370615"/>
    </g>
    <g clip-path="url(#peb91270435)">
     <use style="fill:#cb7474;fill-opacity:0.595765522528;stroke:#000000;stroke-opacity:0.595765522528;" x="230.525827814" xlink:href="#C0_0_317611f619" y="222.871966824"/>
    </g>
    <g clip-path="url(#peb91270435)">
     <use style="fill:#cf7f7f;fill-opacity:0.62557278668;stroke:#000000;stroke-opacity:0.62557278668;" x="230.523363773" xlink:href="#C0_0_317611f619" y="217.308512826"/>
    </g>
    <g clip-path="url(#peb91270435)">
     <use style="fill:#d38a8a;fill-opacity:0.655716339709;stroke:#000000;stroke-opacity:0.655716339709;" x="230.520871931" xlink:href="#C0_0_317611f619" y="211.68229132"/>
    </g>
    <g clip-path="url(#peb91270435)">
     <use style="fill:#d79494;fill-opacity:0.683701097862;stroke:#000000;stroke-opacity:0.683701097862;" x="230.188736506" xlink:href="#C0_0_317611f619" y="206.538325705"/>
    </g>
    <g clip-path="url(#peb91270435)">
     <use style="fill:#db9f9f;fill-opacity:0.714505918278;stroke:#000000;stroke-opacity:0.714505918278;" x="230.184309101" xlink:href="#C0_0_317611f619" y="200.78913259"/>
    </g>
    <g clip-path="url(#peb91270435)">
     <use style="fill:#dfaaaa;fill-opacity:0.745664099425;stroke:#000000;stroke-opacity:0.745664099425;" x="230.17983091" xlink:href="#C0_0_317611f619" y="194.973990736"/>
    </g>
    <g clip-path="url(#peb91270435)">
     <use style="fill:#e3b4b4;fill-opacity:0.774596058884;stroke:#000000;stroke-opacity:0.774596058884;" x="229.840300719" xlink:href="#C0_0_317611f619" y="189.654991886"/>
    </g>
    <g clip-path="url(#peb91270435)">
     <use style="fill:#e7bfbf;fill-opacity:0.806449364362;stroke:#000000;stroke-opacity:0.806449364362;" x="229.833777704" xlink:href="#C0_0_317611f619" y="183.710584711"/>
    </g>
    <g clip-path="url(#peb91270435)">
     <use style="fill:#ebc9c9;fill-opacity:0.836030401415;stroke:#000000;stroke-opacity:0.836030401415;" x="229.488596953" xlink:href="#C0_0_317611f619" y="178.271783146"/>
    </g>
    <g clip-path="url(#peb91270435)">
     <use style="fill:#efd4d4;fill-opacity:0.868602355294;stroke:#000000;stroke-opacity:0.868602355294;" x="229.479937972" xlink:href="#C0_0_317611f619" y="172.19374139"/>
    </g>
    <g clip-path="url(#peb91270435)">
     <use style="fill:#f3dfdf;fill-opacity:0.901558601369;stroke:#000000;stroke-opacity:0.901558601369;" x="229.471176831" xlink:href="#C0_0_317611f619" y="166.043989351"/>
    </g>
    <g clip-path="url(#peb91270435)">
     <use style="fill:#f7e9e9;fill-opacity:0.932169760176;stroke:#000000;stroke-opacity:0.932169760176;" x="229.11804592" xlink:href="#C0_0_317611f619" y="160.414809573"/>
    </g>
    <g clip-path="url(#peb91270435)">
     <use style="fill:#fbf4f4;fill-opacity:0.965882520411;stroke:#000000;stroke-opacity:0.965882520411;" x="229.107025212" xlink:href="#C0_0_317611f619" y="154.124384375"/>
    </g>
    <g clip-path="url(#peb91270435)">
     <use style="fill:#ffffff;stroke:#000000;" x="229.095872201" xlink:href="#C0_0_317611f619" y="147.758443057"/>
    </g>
   </g>
  </g>
 </g>
 <defs>
  <clipPath id="peb91270435">
   <rect height="345.6" width="446.4" x="72.0" y="43.2"/>
  </clipPath>
 </defs>
</svg>
